# xmcd
#
# Track frame offsets: 
#        150
#        17652
#        33194
#        46687
#        65880
#        81673
#        88350
#        108023
#        120728
#        137033
#        154198
#        171455
#
# Disc length: 2346 seconds
#
# Revision: 1
# Processed by: cddbd v1.5.2PL0 Copyright (c) Steve Scherf et al.
# Submitted via: ExactAudioCopy v0.99pb4
#
DISCID=a209280c
DTITLE=Wolfgang Petry - Wo ist das Problem
DYEAR=1991
DGENRE=Deutsche Titel
TTITLE0=Auf den Mond schiessen (hinterherfliegen)
TTITLE1=Schlechte Karten
TTITLE2=Wo ist das Problem
TTITLE3=Ich träume oft vVon Dir
TTITLE4=Schade
TTITLE5=Ich schlief
TTITLE6=Leben lohnt sich
TTITLE7=Du und ich
TTITLE8=Wenn ich ehrlich bin
TTITLE9=100 Stunden
TTITLE10=Immer und ewig
TTITLE11=Ich schlief (Reprise)
EXTD=1991
EXTT0=
EXTT1=
EXTT2=
EXTT3=
EXTT4=
EXTT5=
EXTT6=
EXTT7=
EXTT8=
EXTT9=
EXTT10=
EXTT11=
PLAYORDER=
